<svg xmlns="http://www.w3.org/2000/svg">
    <symbol id="fodbold" viewBox="0 0 512 512">
        <path d="M460.355,421.59L353.844,315.078c20.041-27.553,31.885-61.437,31.885-98.037

 	C385.729,124.934,310.793,50,218.686,50C126.58,50,51.645,124.934,51.645,217.041c0,92.106,74.936,167.041,167.041,167.041

 	c34.912,0,67.352-10.773,94.184-29.158L419.945,462L460.355,421.59z M100.631,217.041c0-65.096,52.959-118.056,118.055-118.056

 	c65.098,0,118.057,52.959,118.057,118.056c0,65.096-52.959,118.056-118.057,118.056C153.59,335.097,100.631,282.137,100.631,217.041

 	z" />
    </symbol>

    <symbol id="fodboldstoevler" viewBox="0 0 24 24">
        <path d="M3 5h18q0.414 0 0.707 0.293t0.293 0.707-0.293 0.707-0.707 0.293h-18q-0.414 0-0.707-0.293t-0.293-0.707 0.293-0.707 0.707-0.293zM3 17h18q0.414 0 0.707 0.293t0.293 0.707-0.293 0.707-0.707 0.293h-18q-0.414 0-0.707-0.293t-0.293-0.707 0.293-0.707 0.707-0.293zM3 11h18q0.414 0 0.707 0.293t0.293 0.707-0.293 0.707-0.707 0.293h-18q-0.414 0-0.707-0.293t-0.293-0.707 0.293-0.707 0.707-0.293z"></path>
    </symbol>

    <symbol id="amerikansk_fodbold" viewBox="-305.1 397.2 12.2 11.7">
        <g>
            <path class="st0" d="M-294.2,397.4l-4.8,4.8l-4.8-4.8l0,0c-0.3-0.3-0.8-0.3-1.1-0.1c-0.3,0.3-0.3,0.8,0.1,1.1l0,0l5.9,5.9l0,0l0,0
				l0,0l0,0l5.9-5.9l0,0c0.3-0.3,0.3-0.8,0.1-1.1C-293.4,397.1-293.9,397.1-294.2,397.4L-294.2,397.4z" />
            <path class="st0" d="M-294.2,401.9l-4.8,4.8l-4.8-4.8l0,0c-0.3-0.3-0.8-0.3-1.1-0.1c-0.3,0.3-0.3,0.8,0.1,1.1l0,0l5.9,5.9l0,0l0,0
				l0,0l0,0l5.9-5.9l0,0c0.3-0.3,0.3-0.8,0.1-1.1C-293.4,401.6-293.9,401.6-294.2,401.9L-294.2,401.9z" />
        </g>
    </symbol>

    <symbol id="hockey_stav" viewBox="-304.6 396.9 15.1 12.1">
        <g>
            <path class="st0" d="M-297,400.7c-1.7,0-3,1.3-3,3s1.3,3,3,3s3-1.3,3-3C-294,402.1-295.3,400.7-297,400.7" />
            <path class="st0" d="M-290.7,399h-1.7l-1.3-1.6l0,0c-0.2-0.3-0.6-0.5-1-0.5h-4.5c-0.4,0-0.8,0.2-1,0.5l0,0l-1.3,1.5h-1.7
				c-0.7,0-1.3,0.6-1.3,1.3v7.6c0,0.7,0.6,1.3,1.3,1.3h12.6c0.7,0,1.3-0.6,1.3-1.3v-7.6C-289.4,399.5-290,399-290.7,399 M-297,407.5
				c-2.1,0-3.8-1.7-3.8-3.8s1.7-3.8,3.8-3.8c2.1,0,3.8,1.7,3.8,3.8S-294.9,407.5-297,407.5" />
        </g>
    </symbol>

    <symbol id="luke" viewBox="-305.5 396.5 35 27">
        <g>
            <path class="st1" d="M-277.7,411.9c0.1-1.2,0.1,0,0.1-1.2c0-2.7-2.2-5-5-5h-10.9c-2.8,0-5,2.2-5,5c0,1.3,0.2,2.2,0.9,3.5l0.5,3
				h-5.4c-1.7,0-3,1.3-3,3c0,1.7,1.3,3,3,3h8.5c1.7,0,2.9-1.1,2.9-2.8l-0.5-4.7h8.1l0.8,5.6c0.4,1.3,1.6,2.2,2.9,2.2
				c0.3,0,0.5,0,0.8-0.1c1.6-0.4,2.5-2.1,2.1-3.7L-277.7,411.9z" />
            <path class="st2" d="M-275.9,406.4c-2.8,0-5.2-2.2-5.4-4.9c0,0.2,0,0.3,0,0.5c0,3,2.4,5.4,5.4,5.4s5.4-2.4,5.4-5.4
				c0-0.2,0-0.3,0-0.5C-270.8,404.2-273.1,406.4-275.9,406.4z" />
            <path class="st2" d="M-297.3,416.2h0.2l-0.5-3c-0.6-1-0.8-1.8-0.8-2.8c0,0.1,0,0.2,0,0.3c0,1.3,0.2,2.2,0.9,3.5L-297.3,416.2z" />
            <path class="st2" d="M-277.7,411.5c0.1-0.4,0.1,0.2,0.1-0.8c0-0.1,0-0.3,0-0.4c0,0-0.1,0.2-0.1,0.6V411.5z" />
            <path class="st2" d="M-294,422.2h-8.5c-1.5,0-2.7-1.1-2.9-2.5c-0.1,0.2-0.1,0.3-0.1,0.5c0,1.6,1.3,3,3,3h8.5
				c1.7,0,2.9-1.1,2.9-2.8l-0.1-0.5C-291.4,421.3-292.6,422.2-294,422.2z" />
            <path class="st2" d="M-279,422.4c-0.3,0.1-0.5,0.1-0.8,0.1c-1.3,0-2.5-0.9-2.9-2.2l-0.8-5.6h-8.1l0.1,1h8l0.8,5.6
				c0.4,1.3,1.6,2.2,2.9,2.2c0.3,0,0.5,0,0.8-0.1c1.5-0.4,2.4-1.9,2.1-3.4C-277.1,421.1-277.9,422.1-279,422.4z" />
        </g>
    </symbol>

    <symbol id="darth_vader" viewBox="-305 397.1 20 17.8">
        <g>
            <path class="st0" d="M-285.1,405.4c0-0.1-0.1-0.3-0.2-0.4c-1.3-2.3-2.7-4.6-4-6.9c-0.2-0.4-0.5-0.7-1-0.9c-0.2-0.1-0.4-0.1-0.6-0.1
				h-0.1c-2.8,0-5.5,0-8.3,0c0-0.1-0.2,0-0.4,0c-0.4,0.1-0.7,0.4-0.9,0.7c-0.2,0.4-0.5,0.8-0.7,1.2c-1.1,2-2.2,3.9-3.3,5.9
				c-0.2,0.2-0.3,0.4-0.4,0.7c0,0.1,0,0.2,0,0.3c0,0,0,0.1,0,0.2c0,0.1,0,0.2,0,0.2c0.1,0.3,0.2,0.5,0.3,0.7c1.3,2.2,2.5,4.4,3.8,6.7
				c0.1,0.2,0.2,0.4,0.4,0.6c0.3,0.4,0.6,0.5,1,0.6c0.1,0,0.2,0,0.2,0c2.8,0,5.5,0,8.3,0c0.1,0,0.2,0,0.3-0.1c0.5-0.1,0.8-0.4,1.1-0.8
				c0.3-0.4,0.5-0.8,0.7-1.3c1.1-2,2.2-3.9,3.4-5.9c0.3,0,0.5-0.3,0.5-0.6l0,0c0-0.2,0-0.2,0-0.3C-285,405.7-285.1,405.5-285.1,405.4z
				M-295.6,411.6c-1.6,0-3.2-0.2-4.6-0.4v-1.9c1.2,0.2,2.5,0.4,3.9,0.4c0.9,0,3,0,3-1.4c0-2.5-6.7-0.2-6.7-4.7c0-3,3.5-3.4,5.3-3.4
				c1.2,0,2.9,0.2,3.9,0.3v1.8c-1-0.1-2.6-0.3-4-0.3c-0.7,0-2.2,0.1-2.2,1.1c0,2.3,6.8,0.2,6.8,4.8
				C-290.2,410.8-293,411.6-295.6,411.6z" />
        </g>
    </symbol>

    <symbol id="leia" viewBox="-305 397 20 20">
        <g>
            <path class="st0" d="M-305,397v20h20v-20H-305z M-294.5,398.8h0.6l1.8,4.7h-2.4V398.8z M-296.1,398.8h0.6v4.7h-2.4L-296.1,398.8z
				M-295.5,415.2h-6.8l3.3-8.8h3.4v8.8H-295.5z M-294.5,415.2v-8.8h3.5l3.3,8.8H-294.5z M-286.1,404.8h-1.3v1.1h-2.3v-1.1h-10.6v1.1
				h-2.3v-1.1h-1.3V404h17.7v0.8H-286.1z" />
        </g>
    </symbol>

    <symbol id="obi_wan" viewBox="-305.3 397.3 14.6 9.4">
        <g>
            <path class="st0" d="M-304.1,397.3h6.1h6.1c0.4,0,0.6,0.5,0.3,0.7l-6,4.5c-0.2,0.2-0.6,0.2-0.8,0l-5.9-4.5
				C-304.6,397.8-304.5,397.3-304.1,397.3z" />
            <path class="st0" d="M-290.7,405.8c0,0.5-0.4,0.9-0.9,0.9h-6.4h-6.4c-0.5-0.1-0.9-0.4-0.9-0.9v-6.6c0-0.3,0.4-0.5,0.7-0.3l6,4.7
				c0.4,0.3,0.8,0.3,1.2,0l6-4.7c0.3-0.2,0.7,0,0.7,0.3C-290.7,399.2-290.7,405.8-290.7,405.8z" />
        </g>
    </symbol>
</svg>